<mxfile host="app.diagrams.net" modified="2023-05-11T16:49:50.740Z" agent="Mozilla/5.0 (Windows NT 10.0; Win64; x64) AppleWebKit/537.36 (KHTML, like Gecko) Chrome/113.0.0.0 Safari/537.36" etag="1rgZe5buTwfLepFSMQPB" version="21.2.9" type="device">
  <diagram id="C5RBs43oDa-KdzZeNtuy" name="Page-1">
    <mxGraphModel dx="594" dy="1604" grid="1" gridSize="10" guides="1" tooltips="1" connect="1" arrows="1" fold="1" page="1" pageScale="1" pageWidth="827" pageHeight="1169" math="0" shadow="0">
      <root>
        <mxCell id="WIyWlLk6GJQsqaUBKTNV-0" />
        <mxCell id="WIyWlLk6GJQsqaUBKTNV-1" parent="WIyWlLk6GJQsqaUBKTNV-0" />
        <mxCell id="n34CAmfpiyMnHwQI43ut-0" value="&lt;b&gt;Use Case: Show hire info Detail&lt;/b&gt;" style="text;html=1;resizable=0;autosize=1;align=center;verticalAlign=middle;points=[];fillColor=none;strokeColor=none;rounded=0;" parent="WIyWlLk6GJQsqaUBKTNV-1" vertex="1">
          <mxGeometry x="40" y="10" width="200" height="30" as="geometry" />
        </mxCell>
        <mxCell id="7pnBDtsKowcjeVla5i2d-3" value="" style="group" parent="WIyWlLk6GJQsqaUBKTNV-1" vertex="1" connectable="0">
          <mxGeometry x="40" y="60" width="200" height="150" as="geometry" />
        </mxCell>
        <mxCell id="7pnBDtsKowcjeVla5i2d-8" value="" style="group" parent="7pnBDtsKowcjeVla5i2d-3" vertex="1" connectable="0">
          <mxGeometry width="200" height="150" as="geometry" />
        </mxCell>
        <mxCell id="7pnBDtsKowcjeVla5i2d-0" value="&amp;lt;&amp;lt;boundary&amp;gt;&amp;gt;&lt;br&gt;ShowHireInfoDetailUI" style="swimlane;whiteSpace=wrap;html=1;swimlaneLine=1;startSize=40;" parent="7pnBDtsKowcjeVla5i2d-8" vertex="1">
          <mxGeometry width="200" height="110" as="geometry">
            <mxRectangle x="100" y="100" width="140" height="40" as="alternateBounds" />
          </mxGeometry>
        </mxCell>
        <mxCell id="7pnBDtsKowcjeVla5i2d-1" value="startInterface()&lt;br&gt;searchHireInfo()&lt;br&gt;selectHireInfoDetail()" style="text;html=1;align=left;verticalAlign=middle;resizable=0;points=[];autosize=1;strokeColor=none;fillColor=none;fontSize=11;" parent="7pnBDtsKowcjeVla5i2d-0" vertex="1">
          <mxGeometry y="60" width="130" height="50" as="geometry" />
        </mxCell>
        <mxCell id="7pnBDtsKowcjeVla5i2d-2" value="" style="endArrow=none;html=1;rounded=0;fontSize=11;" parent="7pnBDtsKowcjeVla5i2d-0" edge="1">
          <mxGeometry width="50" height="50" relative="1" as="geometry">
            <mxPoint y="60" as="sourcePoint" />
            <mxPoint x="200" y="60" as="targetPoint" />
          </mxGeometry>
        </mxCell>
        <mxCell id="7pnBDtsKowcjeVla5i2d-9" value="" style="group" parent="WIyWlLk6GJQsqaUBKTNV-1" vertex="1" connectable="0">
          <mxGeometry x="260" y="60" width="200" height="150" as="geometry" />
        </mxCell>
        <mxCell id="7pnBDtsKowcjeVla5i2d-10" value="" style="group" parent="7pnBDtsKowcjeVla5i2d-9" vertex="1" connectable="0">
          <mxGeometry width="200" height="150" as="geometry" />
        </mxCell>
        <mxCell id="7pnBDtsKowcjeVla5i2d-11" value="&amp;lt;&amp;lt;control&amp;gt;&amp;gt;&lt;br&gt;ShowHireInfoDetail" style="swimlane;whiteSpace=wrap;html=1;swimlaneLine=1;startSize=40;" parent="7pnBDtsKowcjeVla5i2d-10" vertex="1">
          <mxGeometry width="200" height="100" as="geometry">
            <mxRectangle x="100" y="100" width="140" height="40" as="alternateBounds" />
          </mxGeometry>
        </mxCell>
        <mxCell id="7pnBDtsKowcjeVla5i2d-12" value="sendSearchHireInfo()&lt;br&gt;sendSelectHireInfoDetail()" style="text;html=1;align=left;verticalAlign=middle;resizable=0;points=[];autosize=1;strokeColor=none;fillColor=none;fontSize=11;" parent="7pnBDtsKowcjeVla5i2d-11" vertex="1">
          <mxGeometry y="60" width="150" height="40" as="geometry" />
        </mxCell>
        <mxCell id="7pnBDtsKowcjeVla5i2d-13" value="" style="endArrow=none;html=1;rounded=0;fontSize=11;" parent="7pnBDtsKowcjeVla5i2d-11" edge="1">
          <mxGeometry width="50" height="50" relative="1" as="geometry">
            <mxPoint y="60" as="sourcePoint" />
            <mxPoint x="200" y="60" as="targetPoint" />
          </mxGeometry>
        </mxCell>
        <mxCell id="7pnBDtsKowcjeVla5i2d-19" value="" style="group" parent="WIyWlLk6GJQsqaUBKTNV-1" vertex="1" connectable="0">
          <mxGeometry x="40" y="200" width="200" height="300" as="geometry" />
        </mxCell>
        <mxCell id="7pnBDtsKowcjeVla5i2d-20" value="" style="group" parent="7pnBDtsKowcjeVla5i2d-19" vertex="1" connectable="0">
          <mxGeometry width="200" height="300.00000000000006" as="geometry" />
        </mxCell>
        <mxCell id="7pnBDtsKowcjeVla5i2d-21" value="&amp;lt;&amp;lt;entity&amp;gt;&amp;gt;&lt;br&gt;HireInfo" style="swimlane;whiteSpace=wrap;html=1;swimlaneLine=1;startSize=40;" parent="7pnBDtsKowcjeVla5i2d-20" vertex="1">
          <mxGeometry y="10" width="200" height="160" as="geometry">
            <mxRectangle x="100" y="100" width="140" height="40" as="alternateBounds" />
          </mxGeometry>
        </mxCell>
        <mxCell id="7pnBDtsKowcjeVla5i2d-22" value="getHireInfo()&lt;br&gt;getHireInfoDetails()" style="text;html=1;align=left;verticalAlign=middle;resizable=0;points=[];autosize=1;strokeColor=none;fillColor=none;fontSize=11;" parent="7pnBDtsKowcjeVla5i2d-21" vertex="1">
          <mxGeometry y="115" width="120" height="40" as="geometry" />
        </mxCell>
        <mxCell id="7pnBDtsKowcjeVla5i2d-23" value="" style="endArrow=none;html=1;rounded=0;fontSize=11;" parent="7pnBDtsKowcjeVla5i2d-21" edge="1">
          <mxGeometry width="50" height="50" relative="1" as="geometry">
            <mxPoint y="110" as="sourcePoint" />
            <mxPoint x="200" y="110" as="targetPoint" />
          </mxGeometry>
        </mxCell>
        <mxCell id="7pnBDtsKowcjeVla5i2d-25" value="companyName&lt;br&gt;workType&lt;br&gt;applicantNum&lt;br&gt;dueDate" style="text;html=1;align=left;verticalAlign=middle;resizable=0;points=[];autosize=1;strokeColor=none;fillColor=none;fontSize=11;" parent="7pnBDtsKowcjeVla5i2d-21" vertex="1">
          <mxGeometry y="40" width="100" height="70" as="geometry" />
        </mxCell>
      </root>
    </mxGraphModel>
  </diagram>
</mxfile>
